<svg width="80" height="81" fill="none" xmlns="http://www.w3.org/2000/svg"><g clip-path="url('#clip0_1_70')"><g clip-path="url('#clip1_1_70')"><path d="m40.5 7.98 24.651 5.478a3.001 3.001 0 0 1 2.349 2.928v29.961a18 18 0 0 1-8.016 14.976L40.5 73.98 21.516 61.323A17.997 17.997 0 0 1 13.5 46.35V16.386a3.003 3.003 0 0 1 2.349-2.928L40.5 7.98Zm0 18a5.997 5.997 0 0 0-5.795 4.447 5.995 5.995 0 0 0 2.795 6.749V49.98h6l.003-12.804a5.998 5.998 0 0 0 2.795-6.75A5.997 5.997 0 0 0 40.5 25.98Z" fill="#EBCF8F" fill-opacity=".26"/></g></g><defs><clipPath id="clip0_1_70"><path fill="#fff" transform="translate(13 7.98)" d="M0 0h55v66H0z"/></clipPath><clipPath id="clip1_1_70"><path fill="#fff" transform="translate(13 7.98)" d="M0 0h55v66H0z"/></clipPath></defs></svg>