<svg width="712" height="366" fill="none" xmlns="http://www.w3.org/2000/svg"><g clip-path="url('#clip0_1_56')" stroke-width="3" opacity=".35"><path d="M724.5 202.5s-51-24.5-58.5-28-18-2.5-25.5-2-114.5 28-150 56-128 105-184 118.5-147 19-147 19H-.5" stroke="#25245A"/><path d="M723 189.5s-14 9.5-27.5 10-27-6.5-34.5-10-20.5-11-28-10.5-94.5 17.5-144 29.5S363 257 298 266s-137 8.5-137 8.5H-.5" stroke="#635CFE"/><path d="M724.5 174.5S705 188 681.5 190s-67-1-87.5-2.5-24.5-3-37-3.5-397-.5-397-.5H-4.5" stroke="#CEB9FF"/><path d="M721.5 193s-14.5-15.019-28-19.5-27 .981-34.5 4.481-45.5 8.019-53 7.519-70-7-115.5-30.5-128-48-193-57S159 92.981 159 92.981H-2.5" stroke="#FFD879"/><path d="M724.5 163.475s-51 24.5-58.5 28-15.5 9.058-31 8.025c-15.5-1.033-109-34.025-144.5-62.025s-128-105-184-118.5-147-19-147-19h-162" stroke="#6ADBFF"/></g><defs><clipPath id="clip0_1_56"><path fill="#fff" transform="rotate(180 356 183)" d="M0 0h712v366H0z"/></clipPath></defs></svg>