<svg width="712" height="366" fill="none" xmlns="http://www.w3.org/2000/svg"><g clip-path="url('#clip0_1_36')" stroke-width="3"><path d="M-12.5 163.5s51 24.5 58.5 28 18 2.5 25.5 2 114.5-28 150-56 128-105 184-118.5 147-19 147-19h160" stroke="#25245A"/><path d="M-11 176.5s14-9.5 27.5-10 27 6.5 34.5 10 20.5 11 28 10.5 94.5-17.5 144-29.5S349 109 414 100s137-8.5 137-8.5h161.5" stroke="#635CFE"/><path d="M-12.5 191.5S7 178 30.5 176s67 1 87.5 2.5 24.5 3 37 3.5 397 .5 397 .5h164.5" stroke="#CEB9FF"/><path d="M-9.5 173s14.5 15.019 28 19.5 27-.981 34.5-4.481S98.5 180 106 180.5s70 7 115.5 30.5 128 48 193 57 138.5 5.019 138.5 5.019h161.5" stroke="#FFD879"/><path d="M-12.5 202.525s51-24.5 58.5-28 15.5-9.058 31-8.025c15.5 1.033 109 34.025 144.5 62.025s128 105 184 118.5 147 19 147 19h162" stroke="#6ADBFF"/></g><defs><clipPath id="clip0_1_36"><path fill="#fff" d="M0 0h712v366H0z"/></clipPath></defs></svg>